<svg xmlns="http://www.w3.org/2000/svg" width="64" height="64" fill="none" viewBox="0 0 64 64">
  <rect width="64" height="64" rx="18" fill="#f6f1e8" />
  <rect x="6" y="6" width="52" height="52" rx="16" fill="#dbe7df" />
  <rect x="6.5" y="6.5" width="51" height="51" rx="15.5" stroke="#145443" stroke-opacity=".14" />
  <path
    d="M20 40.5V23.5h8.02c4.58 0 7.26 2.12 7.26 5.73c0 2.39-1.33 4.19-3.69 5.02l4.77 6.25h-5.69l-3.83-5.32h-2.3v5.32H20Zm4.54-8.86h3.03c1.91 0 3.03-.88 3.03-2.39s-1.12-2.36-3.03-2.36h-3.03v4.75Z"
    fill="#145443"
  />
  <path
    d="M39.18 40.5v-13.7h-5.15v-3.3h14.81v3.3h-5.12v13.7h-4.54Z"
    fill="#145443"
  />
</svg>
